<mxfile host="app.diagrams.net" modified="2023-06-28T05:36:48.677Z" agent="Mozilla/5.0 (Macintosh; Intel Mac OS X 10_15_7) AppleWebKit/537.36 (KHTML, like Gecko) Chrome/114.0.0.0 Safari/537.36" etag="F8PWbzi8K7qUGiSK5JKy" version="21.5.1" type="github">
  <diagram name="Page-1" id="xxpsvAfeQ8Zb7J3Azdwd">
    <mxGraphModel dx="2284" dy="1818" grid="1" gridSize="10" guides="1" tooltips="1" connect="1" arrows="1" fold="1" page="1" pageScale="1" pageWidth="850" pageHeight="1100" math="0" shadow="0">
      <root>
        <mxCell id="0" />
        <mxCell id="1" style="locked=1;" parent="0" />
        <mxCell id="sxlaejcqGE4b1u8Wx4BG-4" value="" style="rounded=0;whiteSpace=wrap;html=1;" vertex="1" parent="1">
          <mxGeometry y="-1070" width="850" height="50" as="geometry" />
        </mxCell>
        <mxCell id="sxlaejcqGE4b1u8Wx4BG-2" value="&lt;font style=&quot;font-size: 19px;&quot;&gt;&lt;b&gt;LOGO&lt;/b&gt;&lt;/font&gt;" style="text;html=1;strokeColor=none;fillColor=none;align=center;verticalAlign=middle;whiteSpace=wrap;rounded=0;" vertex="1" parent="1">
          <mxGeometry x="30" y="-1060" width="60" height="30" as="geometry" />
        </mxCell>
        <mxCell id="sxlaejcqGE4b1u8Wx4BG-5" value="Admin Panel" style="text;html=1;strokeColor=none;fillColor=none;align=center;verticalAlign=middle;whiteSpace=wrap;rounded=0;" vertex="1" parent="1">
          <mxGeometry x="660" y="-1060" width="80" height="30" as="geometry" />
        </mxCell>
        <mxCell id="sxlaejcqGE4b1u8Wx4BG-7" value="Logout" style="text;html=1;strokeColor=none;fillColor=none;align=center;verticalAlign=middle;whiteSpace=wrap;rounded=0;" vertex="1" parent="1">
          <mxGeometry x="760" y="-1060" width="60" height="30" as="geometry" />
        </mxCell>
        <mxCell id="sxlaejcqGE4b1u8Wx4BG-8" value="" style="rounded=1;whiteSpace=wrap;html=1;arcSize=2;" vertex="1" parent="1">
          <mxGeometry x="40" y="-1000" width="760" height="580" as="geometry" />
        </mxCell>
        <mxCell id="sxlaejcqGE4b1u8Wx4BG-9" value="" style="rounded=1;whiteSpace=wrap;html=1;" vertex="1" parent="1">
          <mxGeometry x="50" y="-990" width="110" height="30" as="geometry" />
        </mxCell>
        <mxCell id="sxlaejcqGE4b1u8Wx4BG-10" value="Add new client" style="text;html=1;strokeColor=none;fillColor=none;align=center;verticalAlign=middle;whiteSpace=wrap;rounded=0;" vertex="1" parent="1">
          <mxGeometry x="55" y="-990" width="100" height="30" as="geometry" />
        </mxCell>
        <mxCell id="sxlaejcqGE4b1u8Wx4BG-14" value="" style="rounded=1;whiteSpace=wrap;html=1;" vertex="1" parent="1">
          <mxGeometry x="470" y="-990" width="130" height="30" as="geometry" />
        </mxCell>
        <mxCell id="sxlaejcqGE4b1u8Wx4BG-15" value="Search" style="text;html=1;strokeColor=none;fillColor=none;align=center;verticalAlign=middle;whiteSpace=wrap;rounded=0;" vertex="1" parent="1">
          <mxGeometry x="480" y="-990" width="110" height="30" as="geometry" />
        </mxCell>
        <mxCell id="sxlaejcqGE4b1u8Wx4BG-16" value="Filter Options" style="text;html=1;strokeColor=none;fillColor=none;align=center;verticalAlign=middle;whiteSpace=wrap;rounded=0;" vertex="1" parent="1">
          <mxGeometry x="610" y="-990" width="60" height="30" as="geometry" />
        </mxCell>
        <mxCell id="sxlaejcqGE4b1u8Wx4BG-17" value="Column Options" style="text;html=1;strokeColor=none;fillColor=none;align=center;verticalAlign=middle;whiteSpace=wrap;rounded=0;" vertex="1" parent="1">
          <mxGeometry x="660" y="-990" width="60" height="30" as="geometry" />
        </mxCell>
        <mxCell id="sxlaejcqGE4b1u8Wx4BG-18" value="" style="shape=table;startSize=30;container=1;collapsible=0;childLayout=tableLayout;strokeColor=default;fontSize=16;" vertex="1" parent="1">
          <mxGeometry x="60" y="-950" width="720" height="500" as="geometry" />
        </mxCell>
        <mxCell id="sxlaejcqGE4b1u8Wx4BG-19" value="" style="shape=tableRow;horizontal=0;startSize=0;swimlaneHead=0;swimlaneBody=0;strokeColor=inherit;top=0;left=0;bottom=0;right=0;collapsible=0;dropTarget=0;fillColor=none;points=[[0,0.5],[1,0.5]];portConstraint=eastwest;fontSize=16;" vertex="1" parent="sxlaejcqGE4b1u8Wx4BG-18">
          <mxGeometry y="30" width="720" height="157" as="geometry" />
        </mxCell>
        <mxCell id="sxlaejcqGE4b1u8Wx4BG-20" value="" style="shape=partialRectangle;html=1;whiteSpace=wrap;connectable=0;strokeColor=inherit;overflow=hidden;fillColor=none;top=0;left=0;bottom=0;right=0;pointerEvents=1;fontSize=16;" vertex="1" parent="sxlaejcqGE4b1u8Wx4BG-19">
          <mxGeometry width="240" height="157" as="geometry">
            <mxRectangle width="240" height="157" as="alternateBounds" />
          </mxGeometry>
        </mxCell>
        <mxCell id="sxlaejcqGE4b1u8Wx4BG-21" value="" style="shape=partialRectangle;html=1;whiteSpace=wrap;connectable=0;strokeColor=inherit;overflow=hidden;fillColor=none;top=0;left=0;bottom=0;right=0;pointerEvents=1;fontSize=16;" vertex="1" parent="sxlaejcqGE4b1u8Wx4BG-19">
          <mxGeometry x="240" width="240" height="157" as="geometry">
            <mxRectangle width="240" height="157" as="alternateBounds" />
          </mxGeometry>
        </mxCell>
        <mxCell id="sxlaejcqGE4b1u8Wx4BG-22" value="" style="shape=partialRectangle;html=1;whiteSpace=wrap;connectable=0;strokeColor=inherit;overflow=hidden;fillColor=none;top=0;left=0;bottom=0;right=0;pointerEvents=1;fontSize=16;" vertex="1" parent="sxlaejcqGE4b1u8Wx4BG-19">
          <mxGeometry x="480" width="240" height="157" as="geometry">
            <mxRectangle width="240" height="157" as="alternateBounds" />
          </mxGeometry>
        </mxCell>
        <mxCell id="sxlaejcqGE4b1u8Wx4BG-23" value="" style="shape=tableRow;horizontal=0;startSize=0;swimlaneHead=0;swimlaneBody=0;strokeColor=inherit;top=0;left=0;bottom=0;right=0;collapsible=0;dropTarget=0;fillColor=none;points=[[0,0.5],[1,0.5]];portConstraint=eastwest;fontSize=16;" vertex="1" parent="sxlaejcqGE4b1u8Wx4BG-18">
          <mxGeometry y="187" width="720" height="156" as="geometry" />
        </mxCell>
        <mxCell id="sxlaejcqGE4b1u8Wx4BG-24" value="" style="shape=partialRectangle;html=1;whiteSpace=wrap;connectable=0;strokeColor=inherit;overflow=hidden;fillColor=none;top=0;left=0;bottom=0;right=0;pointerEvents=1;fontSize=16;" vertex="1" parent="sxlaejcqGE4b1u8Wx4BG-23">
          <mxGeometry width="240" height="156" as="geometry">
            <mxRectangle width="240" height="156" as="alternateBounds" />
          </mxGeometry>
        </mxCell>
        <mxCell id="sxlaejcqGE4b1u8Wx4BG-25" value="" style="shape=partialRectangle;html=1;whiteSpace=wrap;connectable=0;strokeColor=inherit;overflow=hidden;fillColor=none;top=0;left=0;bottom=0;right=0;pointerEvents=1;fontSize=16;" vertex="1" parent="sxlaejcqGE4b1u8Wx4BG-23">
          <mxGeometry x="240" width="240" height="156" as="geometry">
            <mxRectangle width="240" height="156" as="alternateBounds" />
          </mxGeometry>
        </mxCell>
        <mxCell id="sxlaejcqGE4b1u8Wx4BG-26" value="" style="shape=partialRectangle;html=1;whiteSpace=wrap;connectable=0;strokeColor=inherit;overflow=hidden;fillColor=none;top=0;left=0;bottom=0;right=0;pointerEvents=1;fontSize=16;" vertex="1" parent="sxlaejcqGE4b1u8Wx4BG-23">
          <mxGeometry x="480" width="240" height="156" as="geometry">
            <mxRectangle width="240" height="156" as="alternateBounds" />
          </mxGeometry>
        </mxCell>
        <mxCell id="sxlaejcqGE4b1u8Wx4BG-27" value="" style="shape=tableRow;horizontal=0;startSize=0;swimlaneHead=0;swimlaneBody=0;strokeColor=inherit;top=0;left=0;bottom=0;right=0;collapsible=0;dropTarget=0;fillColor=none;points=[[0,0.5],[1,0.5]];portConstraint=eastwest;fontSize=16;" vertex="1" parent="sxlaejcqGE4b1u8Wx4BG-18">
          <mxGeometry y="343" width="720" height="157" as="geometry" />
        </mxCell>
        <mxCell id="sxlaejcqGE4b1u8Wx4BG-28" value="" style="shape=partialRectangle;html=1;whiteSpace=wrap;connectable=0;strokeColor=inherit;overflow=hidden;fillColor=none;top=0;left=0;bottom=0;right=0;pointerEvents=1;fontSize=16;" vertex="1" parent="sxlaejcqGE4b1u8Wx4BG-27">
          <mxGeometry width="240" height="157" as="geometry">
            <mxRectangle width="240" height="157" as="alternateBounds" />
          </mxGeometry>
        </mxCell>
        <mxCell id="sxlaejcqGE4b1u8Wx4BG-29" value="" style="shape=partialRectangle;html=1;whiteSpace=wrap;connectable=0;strokeColor=inherit;overflow=hidden;fillColor=none;top=0;left=0;bottom=0;right=0;pointerEvents=1;fontSize=16;" vertex="1" parent="sxlaejcqGE4b1u8Wx4BG-27">
          <mxGeometry x="240" width="240" height="157" as="geometry">
            <mxRectangle width="240" height="157" as="alternateBounds" />
          </mxGeometry>
        </mxCell>
        <mxCell id="sxlaejcqGE4b1u8Wx4BG-30" value="" style="shape=partialRectangle;html=1;whiteSpace=wrap;connectable=0;strokeColor=inherit;overflow=hidden;fillColor=none;top=0;left=0;bottom=0;right=0;pointerEvents=1;fontSize=16;" vertex="1" parent="sxlaejcqGE4b1u8Wx4BG-27">
          <mxGeometry x="480" width="240" height="157" as="geometry">
            <mxRectangle width="240" height="157" as="alternateBounds" />
          </mxGeometry>
        </mxCell>
        <mxCell id="sxlaejcqGE4b1u8Wx4BG-31" value="" style="rounded=0;whiteSpace=wrap;html=1;" vertex="1" parent="1">
          <mxGeometry x="60" y="-920" width="720" height="40" as="geometry" />
        </mxCell>
        <mxCell id="sxlaejcqGE4b1u8Wx4BG-32" value="" style="rounded=0;whiteSpace=wrap;html=1;" vertex="1" parent="1">
          <mxGeometry x="60" y="-880" width="720" height="40" as="geometry" />
        </mxCell>
        <mxCell id="sxlaejcqGE4b1u8Wx4BG-33" value="" style="rounded=0;whiteSpace=wrap;html=1;" vertex="1" parent="1">
          <mxGeometry x="60" y="-840" width="720" height="40" as="geometry" />
        </mxCell>
        <mxCell id="sxlaejcqGE4b1u8Wx4BG-34" value="" style="rounded=0;whiteSpace=wrap;html=1;" vertex="1" parent="1">
          <mxGeometry x="60" y="-800" width="720" height="40" as="geometry" />
        </mxCell>
        <mxCell id="sxlaejcqGE4b1u8Wx4BG-35" value="" style="rounded=0;whiteSpace=wrap;html=1;" vertex="1" parent="1">
          <mxGeometry x="60" y="-760" width="720" height="40" as="geometry" />
        </mxCell>
        <mxCell id="sxlaejcqGE4b1u8Wx4BG-36" value="" style="rounded=0;whiteSpace=wrap;html=1;" vertex="1" parent="1">
          <mxGeometry x="60" y="-720" width="720" height="40" as="geometry" />
        </mxCell>
        <mxCell id="sxlaejcqGE4b1u8Wx4BG-37" value="" style="rounded=0;whiteSpace=wrap;html=1;" vertex="1" parent="1">
          <mxGeometry x="60" y="-680" width="720" height="40" as="geometry" />
        </mxCell>
        <mxCell id="sxlaejcqGE4b1u8Wx4BG-38" value="" style="rounded=0;whiteSpace=wrap;html=1;" vertex="1" parent="1">
          <mxGeometry x="60" y="-640" width="720" height="40" as="geometry" />
        </mxCell>
        <mxCell id="sxlaejcqGE4b1u8Wx4BG-39" value="" style="rounded=0;whiteSpace=wrap;html=1;" vertex="1" parent="1">
          <mxGeometry x="60" y="-600" width="720" height="40" as="geometry" />
        </mxCell>
        <mxCell id="sxlaejcqGE4b1u8Wx4BG-40" value="" style="rounded=0;whiteSpace=wrap;html=1;" vertex="1" parent="1">
          <mxGeometry x="60" y="-560" width="720" height="40" as="geometry" />
        </mxCell>
        <mxCell id="sxlaejcqGE4b1u8Wx4BG-41" value="" style="rounded=0;whiteSpace=wrap;html=1;" vertex="1" parent="1">
          <mxGeometry x="60" y="-520" width="720" height="40" as="geometry" />
        </mxCell>
        <mxCell id="sxlaejcqGE4b1u8Wx4BG-42" value="" style="rounded=0;whiteSpace=wrap;html=1;" vertex="1" parent="1">
          <mxGeometry x="60" y="-480" width="720" height="40" as="geometry" />
        </mxCell>
        <mxCell id="sxlaejcqGE4b1u8Wx4BG-50" value="" style="line;strokeWidth=2;direction=south;html=1;" vertex="1" parent="1">
          <mxGeometry x="140" y="-950" width="10" height="510" as="geometry" />
        </mxCell>
        <mxCell id="sxlaejcqGE4b1u8Wx4BG-51" value="" style="line;strokeWidth=2;direction=south;html=1;" vertex="1" parent="1">
          <mxGeometry x="230" y="-950" width="10" height="510" as="geometry" />
        </mxCell>
        <mxCell id="sxlaejcqGE4b1u8Wx4BG-52" value="" style="line;strokeWidth=2;direction=south;html=1;" vertex="1" parent="1">
          <mxGeometry x="320" y="-950" width="10" height="510" as="geometry" />
        </mxCell>
        <mxCell id="sxlaejcqGE4b1u8Wx4BG-53" value="" style="line;strokeWidth=2;direction=south;html=1;" vertex="1" parent="1">
          <mxGeometry x="410" y="-950" width="10" height="510" as="geometry" />
        </mxCell>
        <mxCell id="sxlaejcqGE4b1u8Wx4BG-54" value="" style="line;strokeWidth=2;direction=south;html=1;" vertex="1" parent="1">
          <mxGeometry x="500" y="-950" width="10" height="510" as="geometry" />
        </mxCell>
        <mxCell id="sxlaejcqGE4b1u8Wx4BG-55" value="" style="line;strokeWidth=2;direction=south;html=1;" vertex="1" parent="1">
          <mxGeometry x="590" y="-950" width="10" height="510" as="geometry" />
        </mxCell>
        <mxCell id="sxlaejcqGE4b1u8Wx4BG-56" value="" style="line;strokeWidth=2;direction=south;html=1;" vertex="1" parent="1">
          <mxGeometry x="670" y="-950" width="10" height="510" as="geometry" />
        </mxCell>
        <mxCell id="sxlaejcqGE4b1u8Wx4BG-82" style="edgeStyle=orthogonalEdgeStyle;rounded=0;orthogonalLoop=1;jettySize=auto;html=1;exitX=0;exitY=0.5;exitDx=0;exitDy=0;" edge="1" parent="1" source="sxlaejcqGE4b1u8Wx4BG-57" target="sxlaejcqGE4b1u8Wx4BG-83">
          <mxGeometry relative="1" as="geometry">
            <mxPoint x="-20" y="-910" as="targetPoint" />
          </mxGeometry>
        </mxCell>
        <mxCell id="sxlaejcqGE4b1u8Wx4BG-57" value="Action" style="text;html=1;strokeColor=none;fillColor=none;align=center;verticalAlign=middle;whiteSpace=wrap;rounded=0;" vertex="1" parent="1">
          <mxGeometry x="70" y="-950" width="60" height="30" as="geometry" />
        </mxCell>
        <mxCell id="sxlaejcqGE4b1u8Wx4BG-58" value="Loans" style="text;html=1;strokeColor=none;fillColor=none;align=center;verticalAlign=middle;whiteSpace=wrap;rounded=0;" vertex="1" parent="1">
          <mxGeometry x="160" y="-950" width="60" height="30" as="geometry" />
        </mxCell>
        <mxCell id="sxlaejcqGE4b1u8Wx4BG-59" value="Name" style="text;html=1;strokeColor=none;fillColor=none;align=center;verticalAlign=middle;whiteSpace=wrap;rounded=0;" vertex="1" parent="1">
          <mxGeometry x="250" y="-950" width="60" height="30" as="geometry" />
        </mxCell>
        <mxCell id="sxlaejcqGE4b1u8Wx4BG-60" value="ID" style="text;html=1;strokeColor=none;fillColor=none;align=center;verticalAlign=middle;whiteSpace=wrap;rounded=0;" vertex="1" parent="1">
          <mxGeometry x="340" y="-950" width="60" height="30" as="geometry" />
        </mxCell>
        <mxCell id="sxlaejcqGE4b1u8Wx4BG-61" value="Bank" style="text;html=1;strokeColor=none;fillColor=none;align=center;verticalAlign=middle;whiteSpace=wrap;rounded=0;" vertex="1" parent="1">
          <mxGeometry x="430" y="-950" width="60" height="30" as="geometry" />
        </mxCell>
        <mxCell id="sxlaejcqGE4b1u8Wx4BG-62" value="Account" style="text;html=1;strokeColor=none;fillColor=none;align=center;verticalAlign=middle;whiteSpace=wrap;rounded=0;" vertex="1" parent="1">
          <mxGeometry x="520" y="-950" width="60" height="30" as="geometry" />
        </mxCell>
        <mxCell id="sxlaejcqGE4b1u8Wx4BG-63" value="Salary" style="text;html=1;strokeColor=none;fillColor=none;align=center;verticalAlign=middle;whiteSpace=wrap;rounded=0;" vertex="1" parent="1">
          <mxGeometry x="600" y="-950" width="70" height="30" as="geometry" />
        </mxCell>
        <mxCell id="sxlaejcqGE4b1u8Wx4BG-64" value="Phone" style="text;html=1;strokeColor=none;fillColor=none;align=center;verticalAlign=middle;whiteSpace=wrap;rounded=0;" vertex="1" parent="1">
          <mxGeometry x="690" y="-950" width="60" height="30" as="geometry" />
        </mxCell>
        <mxCell id="sxlaejcqGE4b1u8Wx4BG-65" value="" style="line;strokeWidth=2;direction=south;html=1;" vertex="1" parent="1">
          <mxGeometry x="760" y="-950" width="10" height="510" as="geometry" />
        </mxCell>
        <mxCell id="sxlaejcqGE4b1u8Wx4BG-72" value="" style="line;strokeWidth=2;html=1;" vertex="1" parent="1">
          <mxGeometry x="80" y="-745" width="30" height="10" as="geometry" />
        </mxCell>
        <mxCell id="sxlaejcqGE4b1u8Wx4BG-73" value="" style="line;strokeWidth=2;html=1;" vertex="1" parent="1">
          <mxGeometry x="80" y="-705" width="30" height="10" as="geometry" />
        </mxCell>
        <mxCell id="sxlaejcqGE4b1u8Wx4BG-74" value="" style="line;strokeWidth=2;html=1;" vertex="1" parent="1">
          <mxGeometry x="80" y="-665" width="30" height="10" as="geometry" />
        </mxCell>
        <mxCell id="sxlaejcqGE4b1u8Wx4BG-76" style="edgeStyle=orthogonalEdgeStyle;rounded=0;orthogonalLoop=1;jettySize=auto;html=1;exitX=1;exitY=0.5;exitDx=0;exitDy=0;" edge="1" parent="1" source="sxlaejcqGE4b1u8Wx4BG-75" target="sxlaejcqGE4b1u8Wx4BG-77">
          <mxGeometry relative="1" as="geometry">
            <mxPoint x="810" y="-975" as="targetPoint" />
          </mxGeometry>
        </mxCell>
        <mxCell id="sxlaejcqGE4b1u8Wx4BG-75" value="" style="whiteSpace=wrap;html=1;aspect=fixed;" vertex="1" parent="1">
          <mxGeometry x="760" y="-987.5" width="25" height="25" as="geometry" />
        </mxCell>
        <mxCell id="sxlaejcqGE4b1u8Wx4BG-77" value="Full Screen Mode" style="text;html=1;strokeColor=none;fillColor=none;align=center;verticalAlign=middle;whiteSpace=wrap;rounded=0;" vertex="1" parent="1">
          <mxGeometry x="840" y="-987.5" width="60" height="30" as="geometry" />
        </mxCell>
        <mxCell id="sxlaejcqGE4b1u8Wx4BG-80" style="edgeStyle=orthogonalEdgeStyle;rounded=0;orthogonalLoop=1;jettySize=auto;html=1;exitX=0.75;exitY=1;exitDx=0;exitDy=0;" edge="1" parent="1" source="sxlaejcqGE4b1u8Wx4BG-78" target="sxlaejcqGE4b1u8Wx4BG-81">
          <mxGeometry relative="1" as="geometry">
            <mxPoint x="840" y="-910" as="targetPoint" />
            <Array as="points">
              <mxPoint x="743" y="-960" />
              <mxPoint x="750" y="-960" />
              <mxPoint x="750" y="-890" />
            </Array>
          </mxGeometry>
        </mxCell>
        <mxCell id="sxlaejcqGE4b1u8Wx4BG-78" value="" style="shape=partialRectangle;whiteSpace=wrap;html=1;left=0;right=0;fillColor=none;" vertex="1" parent="1">
          <mxGeometry x="720" y="-985" width="30" height="20" as="geometry" />
        </mxCell>
        <mxCell id="sxlaejcqGE4b1u8Wx4BG-81" value="Row Heights Adjust" style="text;html=1;strokeColor=none;fillColor=none;align=center;verticalAlign=middle;whiteSpace=wrap;rounded=0;" vertex="1" parent="1">
          <mxGeometry x="840" y="-905" width="60" height="30" as="geometry" />
        </mxCell>
        <mxCell id="sxlaejcqGE4b1u8Wx4BG-83" value="Edit Client&amp;nbsp;" style="text;html=1;strokeColor=none;fillColor=none;align=center;verticalAlign=middle;whiteSpace=wrap;rounded=0;" vertex="1" parent="1">
          <mxGeometry x="-90" y="-950" width="80" height="30" as="geometry" />
        </mxCell>
        <mxCell id="sxlaejcqGE4b1u8Wx4BG-89" style="edgeStyle=orthogonalEdgeStyle;rounded=0;orthogonalLoop=1;jettySize=auto;html=1;exitX=0;exitY=0.5;exitDx=0;exitDy=0;exitPerimeter=0;" edge="1" parent="1" target="sxlaejcqGE4b1u8Wx4BG-90">
          <mxGeometry relative="1" as="geometry">
            <mxPoint x="-60" y="-830" as="targetPoint" />
            <mxPoint x="175" y="-897.5" as="sourcePoint" />
            <Array as="points">
              <mxPoint x="160" y="-897" />
              <mxPoint x="160" y="-875" />
            </Array>
          </mxGeometry>
        </mxCell>
        <mxCell id="sxlaejcqGE4b1u8Wx4BG-88" value="" style="line;strokeWidth=2;html=1;" vertex="1" parent="1">
          <mxGeometry x="175" y="-745" width="30" height="10" as="geometry" />
        </mxCell>
        <mxCell id="sxlaejcqGE4b1u8Wx4BG-90" value="Drop Down and Display Clients loans in table form" style="text;html=1;strokeColor=none;fillColor=none;align=center;verticalAlign=middle;whiteSpace=wrap;rounded=0;" vertex="1" parent="1">
          <mxGeometry x="-180" y="-890" width="60" height="30" as="geometry" />
        </mxCell>
        <mxCell id="sxlaejcqGE4b1u8Wx4BG-92" value="" style="html=1;dashed=0;aspect=fixed;verticalLabelPosition=bottom;verticalAlign=top;align=center;shape=mxgraph.gmdl.edit;strokeColor=none;fillColor=#737373;shadow=0;sketch=0;" vertex="1" parent="1">
          <mxGeometry x="90" y="-910" width="20" height="20" as="geometry" />
        </mxCell>
        <mxCell id="sxlaejcqGE4b1u8Wx4BG-93" value="" style="html=1;dashed=0;aspect=fixed;verticalLabelPosition=bottom;verticalAlign=top;align=center;shape=mxgraph.gmdl.edit;strokeColor=none;fillColor=#737373;shadow=0;sketch=0;" vertex="1" parent="1">
          <mxGeometry x="90" y="-870" width="20" height="20" as="geometry" />
        </mxCell>
        <mxCell id="sxlaejcqGE4b1u8Wx4BG-94" value="" style="html=1;dashed=0;aspect=fixed;verticalLabelPosition=bottom;verticalAlign=top;align=center;shape=mxgraph.gmdl.edit;strokeColor=none;fillColor=#737373;shadow=0;sketch=0;" vertex="1" parent="1">
          <mxGeometry x="90" y="-830" width="20" height="20" as="geometry" />
        </mxCell>
        <mxCell id="sxlaejcqGE4b1u8Wx4BG-95" value="" style="html=1;dashed=0;aspect=fixed;verticalLabelPosition=bottom;verticalAlign=top;align=center;shape=mxgraph.gmdl.edit;strokeColor=none;fillColor=#737373;shadow=0;sketch=0;" vertex="1" parent="1">
          <mxGeometry x="90" y="-790" width="20" height="20" as="geometry" />
        </mxCell>
        <mxCell id="sxlaejcqGE4b1u8Wx4BG-97" value="" style="html=1;verticalLabelPosition=bottom;labelBackgroundColor=#ffffff;verticalAlign=top;shadow=0;dashed=0;strokeWidth=2;shape=mxgraph.ios7.misc.down;strokeColor=#0080f0;" vertex="1" parent="1">
          <mxGeometry x="184" y="-903" width="12" height="6" as="geometry" />
        </mxCell>
        <mxCell id="sxlaejcqGE4b1u8Wx4BG-99" value="" style="html=1;verticalLabelPosition=bottom;labelBackgroundColor=#ffffff;verticalAlign=top;shadow=0;dashed=0;strokeWidth=2;shape=mxgraph.ios7.misc.down;strokeColor=#0080f0;" vertex="1" parent="1">
          <mxGeometry x="184" y="-866" width="12" height="6" as="geometry" />
        </mxCell>
        <mxCell id="sxlaejcqGE4b1u8Wx4BG-100" value="" style="html=1;verticalLabelPosition=bottom;labelBackgroundColor=#ffffff;verticalAlign=top;shadow=0;dashed=0;strokeWidth=2;shape=mxgraph.ios7.misc.down;strokeColor=#0080f0;" vertex="1" parent="1">
          <mxGeometry x="184" y="-823" width="12" height="6" as="geometry" />
        </mxCell>
        <mxCell id="sxlaejcqGE4b1u8Wx4BG-101" value="" style="html=1;verticalLabelPosition=bottom;labelBackgroundColor=#ffffff;verticalAlign=top;shadow=0;dashed=0;strokeWidth=2;shape=mxgraph.ios7.misc.down;strokeColor=#0080f0;" vertex="1" parent="1">
          <mxGeometry x="184" y="-783" width="12" height="6" as="geometry" />
        </mxCell>
        <mxCell id="sxlaejcqGE4b1u8Wx4BG-110" style="edgeStyle=orthogonalEdgeStyle;rounded=0;orthogonalLoop=1;jettySize=auto;html=1;exitX=0.5;exitY=1;exitDx=0;exitDy=0;" edge="1" parent="1" source="sxlaejcqGE4b1u8Wx4BG-102">
          <mxGeometry relative="1" as="geometry">
            <mxPoint x="-130" y="-720" as="targetPoint" />
            <Array as="points">
              <mxPoint x="280" y="-790" />
              <mxPoint x="-129" y="-790" />
            </Array>
          </mxGeometry>
        </mxCell>
        <mxCell id="sxlaejcqGE4b1u8Wx4BG-102" value="John Doe" style="text;html=1;strokeColor=none;fillColor=none;align=center;verticalAlign=middle;whiteSpace=wrap;rounded=0;strokeWidth=8;fontStyle=4" vertex="1" parent="1">
          <mxGeometry x="250" y="-915" width="60" height="30" as="geometry" />
        </mxCell>
        <mxCell id="sxlaejcqGE4b1u8Wx4BG-103" value="87121350.." style="text;html=1;strokeColor=none;fillColor=none;align=center;verticalAlign=middle;whiteSpace=wrap;rounded=0;" vertex="1" parent="1">
          <mxGeometry x="340" y="-915" width="60" height="30" as="geometry" />
        </mxCell>
        <mxCell id="sxlaejcqGE4b1u8Wx4BG-104" value="FNB" style="text;html=1;strokeColor=none;fillColor=none;align=center;verticalAlign=middle;whiteSpace=wrap;rounded=0;" vertex="1" parent="1">
          <mxGeometry x="430" y="-915" width="60" height="30" as="geometry" />
        </mxCell>
        <mxCell id="sxlaejcqGE4b1u8Wx4BG-105" value="674324.." style="text;html=1;strokeColor=none;fillColor=none;align=center;verticalAlign=middle;whiteSpace=wrap;rounded=0;" vertex="1" parent="1">
          <mxGeometry x="520" y="-915" width="60" height="30" as="geometry" />
        </mxCell>
        <mxCell id="sxlaejcqGE4b1u8Wx4BG-106" value="15000" style="text;html=1;strokeColor=none;fillColor=none;align=center;verticalAlign=middle;whiteSpace=wrap;rounded=0;" vertex="1" parent="1">
          <mxGeometry x="605" y="-915" width="60" height="30" as="geometry" />
        </mxCell>
        <mxCell id="sxlaejcqGE4b1u8Wx4BG-107" value="082334..." style="text;html=1;strokeColor=none;fillColor=none;align=center;verticalAlign=middle;whiteSpace=wrap;rounded=0;" vertex="1" parent="1">
          <mxGeometry x="700" y="-915" width="60" height="30" as="geometry" />
        </mxCell>
        <mxCell id="sxlaejcqGE4b1u8Wx4BG-111" value="Click to view client profile" style="text;html=1;strokeColor=none;fillColor=none;align=center;verticalAlign=middle;whiteSpace=wrap;rounded=0;" vertex="1" parent="1">
          <mxGeometry x="-160" y="-705" width="60" height="30" as="geometry" />
        </mxCell>
      </root>
    </mxGraphModel>
  </diagram>
</mxfile>
